<?xml version="1.0" encoding="UTF-8" standalone="no"?>
<!-- Created with Inkscape (http://www.inkscape.org/) -->

<svg
   width="623.35944"
   height="473.51355"
   viewBox="0 0 164.93051 125.2838"
   version="1.1"
   id="svg8"
   inkscape:version="1.2.1 (9c6d41e410, 2022-07-14, custom)"
   sodipodi:docname="cow.svg"
   xmlns:inkscape="http://www.inkscape.org/namespaces/inkscape"
   xmlns:sodipodi="http://sodipodi.sourceforge.net/DTD/sodipodi-0.dtd"
   xmlns="http://www.w3.org/2000/svg"
   xmlns:svg="http://www.w3.org/2000/svg"
   xmlns:rdf="http://www.w3.org/1999/02/22-rdf-syntax-ns#"
   xmlns:cc="http://creativecommons.org/ns#"
   xmlns:dc="http://purl.org/dc/elements/1.1/">
  <defs
     id="defs2" />
  <sodipodi:namedview
     id="base"
     pagecolor="#ffffff"
     bordercolor="#666666"
     borderopacity="1.0"
     inkscape:pageopacity="0.0"
     inkscape:pageshadow="2"
     inkscape:zoom="0.89061963"
     inkscape:cx="457.54662"
     inkscape:cy="149.33423"
     inkscape:document-units="mm"
     inkscape:current-layer="layer2"
     showgrid="true"
     units="px"
     inkscape:window-width="1716"
     inkscape:window-height="1384"
     inkscape:window-x="1720"
     inkscape:window-y="54"
     inkscape:window-maximized="0"
     inkscape:showpageshadow="2"
     inkscape:pagecheckerboard="true"
     inkscape:deskcolor="#d1d1d1">
    <inkscape:grid
       type="xygrid"
       id="grid4485"
       empspacing="4"
       spacingx="4.2333333"
       spacingy="4.2333333"
       originx="66.366326"
       originy="3.5685128" />
  </sodipodi:namedview>
  <metadata
     id="metadata5">
    <rdf:RDF>
      <cc:Work
         rdf:about="">
        <dc:format>image/svg+xml</dc:format>
        <dc:type
           rdf:resource="http://purl.org/dc/dcmitype/StillImage" />
      </cc:Work>
    </rdf:RDF>
  </metadata>
  <g
     inkscape:label="Layer 1"
     inkscape:groupmode="layer"
     id="layer1"
     transform="translate(66.366333,-225.69814)">
    <g
       inkscape:groupmode="layer"
       id="layer2"
       inkscape:label="cow"
       transform="translate(-180.55701,91.615099)">
      <rect
         style="fill:#f48fb1;fill-opacity:1;stroke:none;stroke-width:1.01459;stroke-linecap:round;stroke-dasharray:none;stroke-opacity:1"
         id="rect11326"
         width="2.9546278"
         height="16.213577"
         x="181.32777"
         y="227.54556"
         ry="1.4773139" />
      <rect
         style="fill:#f48fb1;fill-opacity:1;stroke:none;stroke-width:1.01459;stroke-linecap:round;stroke-dasharray:none;stroke-opacity:1"
         id="rect10772"
         width="19.275675"
         height="15.422897"
         x="177.55925"
         y="226.24106"
         ry="4.6015096" />
      <path
         id="path9123"
         style="fill:#bcaaa4;fill-opacity:0.997068;stroke-width:0.405708;stroke-linecap:round"
         d="m 236.3724,150.08498 c 3.97974,6.3515 2.4683,5.85725 -0.2267,7.9009 -4.37858,3.32035 -8.42668,-3.53859 -8.42668,-11.03391 0,-7.49532 3.58475,-13.11689 5.04811,-12.8605 2.09613,0.36725 -0.23199,9.8694 3.60527,15.99351 z"
         sodipodi:nodetypes="sssss" />
      <rect
         style="fill:#ffffff;fill-opacity:0.997068;stroke:none;stroke-width:0.405708;stroke-linecap:round"
         id="rect3964"
         width="10.033573"
         height="39.643677"
         x="149.32323"
         y="219.72316" />
      <rect
         style="fill:#ffffff;fill-opacity:0.997068;stroke:none;stroke-width:0.405708;stroke-linecap:round"
         id="rect3970"
         width="10.033573"
         height="39.643677"
         x="164.49046"
         y="219.72316" />
      <rect
         style="fill:#ffffff;fill-opacity:0.997068;stroke:none;stroke-width:0.405708;stroke-linecap:round"
         id="rect3972"
         width="10.033573"
         height="39.643677"
         x="233.44386"
         y="219.72316" />
      <rect
         style="fill:#ffffff;fill-opacity:0.997068;stroke:none;stroke-width:0.405708;stroke-linecap:round"
         id="rect3974"
         width="10.033573"
         height="39.643677"
         x="218.4579"
         y="219.72316" />
      <rect
         style="fill:#ffffff;fill-opacity:0.997068;stroke:none;stroke-width:1.01459;stroke-linecap:round;stroke-dasharray:none;stroke-opacity:1"
         id="rect10657"
         width="47.481365"
         height="47.481365"
         x="229.34192"
         y="151.53812"
         ry="12.088537" />
      <rect
         style="fill:#ffffff;fill-opacity:0.997068;stroke:none;stroke-width:0.360172;stroke-linecap:round"
         id="rect6941"
         width="5.4014807"
         height="31.740538"
         x="-183.73981"
         y="123.49329"
         transform="rotate(-90)" />
      <rect
         style="fill:#f48fb1;fill-opacity:1;stroke:none;stroke-width:1.01459;stroke-linecap:round;stroke-dasharray:none;stroke-opacity:1"
         id="rect11330"
         width="2.9546278"
         height="16.213577"
         x="189.50168"
         y="227.54556"
         ry="1.4773139" />
      <rect
         style="fill:#f48fb1;fill-opacity:1;stroke:none;stroke-width:1.01459;stroke-linecap:round;stroke-dasharray:none;stroke-opacity:1"
         id="rect11328"
         width="2.9546278"
         height="16.213577"
         x="185.30376"
         y="227.54556"
         ry="1.4773139" />
      <rect
         style="fill:#ffffff;fill-opacity:0.997068;stroke:none;stroke-width:0.405708;stroke-linecap:round"
         id="rect7669"
         width="103.18138"
         height="59.735523"
         x="145.25751"
         y="173.28856"
         ry="17.045288" />
      <path
         id="path10720"
         style="fill:#bcaaa4;fill-opacity:0.997068;stroke-width:0.405708;stroke-linecap:round"
         d="m 270.46781,150.08498 c -3.97974,6.3515 -2.4683,5.85725 0.2267,7.9009 4.37859,3.32035 8.42668,-3.53859 8.42668,-11.03391 0,-7.49532 -3.58475,-13.11689 -5.04811,-12.8605 -2.09613,0.36725 0.23199,9.8694 -3.60527,15.99351 z"
         sodipodi:nodetypes="sssss" />
      <path
         id="rect9229"
         style="fill-opacity:0.997068;stroke-width:0.405708;stroke-linecap:round"
         d="m 251.13261,151.53796 v 25.46502 c 0,3.75525 3.0235,6.77833 6.77873,6.77833 h 18.9122 v -20.15467 c 0,-6.69704 -5.39166,-12.08868 -12.08869,-12.08868 z m -88.19127,21.75067 v 18.8908 c 0,3.75522 3.02309,6.77833 6.77834,6.77833 h 10.75742 c 3.75524,0 6.77874,-3.02311 6.77874,-6.77833 v -18.8908 z m 32.01309,0 v 7.1164 c 0,3.75523 3.0231,6.77873 6.77833,6.77873 h 14.6644 c 3.75525,0 6.77834,-3.0235 6.77834,-6.77873 v -7.1164 z m 5.67497,26.51965 c -3.75523,0 -6.77834,3.02309 -6.77834,6.77833 v 8.91848 c 0,3.75524 3.02311,6.77834 6.77834,6.77834 h 27.02337 c 3.75524,0 6.77834,-3.0231 6.77834,-6.77834 v -8.91848 c 0,-3.75524 -3.0231,-6.77833 -6.77834,-6.77833 z m -55.37165,6.1882 v 9.98222 c 0,4.23214 1.53017,8.09179 4.06549,11.06577 v 1.42716 h 19.9038 c 3.75523,0 6.77834,-3.02308 6.77834,-6.77833 v -8.91849 c 0,-3.75523 -3.02311,-6.77833 -6.77834,-6.77833 z m 19.23282,31.42495 v 21.94527 h 10.03374 v -21.94527 z m 53.96748,0.41614 v 13.0034 h 10.03374 v -13.0034 z" />
      <path
         id="path9467"
         style="fill-opacity:0.997068;stroke-width:0.405708;stroke-linecap:round"
         d="m 127.56097,180.90263 c 0,3.0722 -2.29077,4.50876 -5.47931,4.48008 -6.3295,-0.0569 -8.43902,-8.45142 -7.77373,-9.30781 1.03291,-1.32963 3.32679,1.02623 8.36132,0.20467 2.56688,-0.41888 4.89172,1.55087 4.89172,4.62306 z"
         sodipodi:nodetypes="sssss" />
      <g
         id="g10255"
         transform="matrix(0.7669343,0,0,0.7669343,26.814669,60.449511)">
        <ellipse
           style="fill:#ffffff;fill-opacity:0.997068;stroke:#000000;stroke-width:1.32292;stroke-linecap:round;stroke-dasharray:none;stroke-opacity:1"
           id="path10234"
           cx="281.11047"
           cy="143.06802"
           rx="8.4483833"
           ry="13.669771" />
        <circle
           style="fill:#000000;fill-opacity:0.997068;stroke:none;stroke-width:1.9902;stroke-linecap:round;stroke-dasharray:none;stroke-opacity:1"
           id="path10238"
           cx="281.2341"
           cy="146.37953"
           r="5.8570695" />
        <circle
           style="fill:#ffffff;fill-opacity:0.997068;stroke:none;stroke-width:1.50451;stroke-linecap:round;stroke-dasharray:none;stroke-opacity:1"
           id="circle10242"
           cx="278.84683"
           cy="144.18706"
           r="1.1898601" />
      </g>
      <g
         id="g10265"
         transform="matrix(0.7669343,0,0,0.7669343,48.163997,60.449511)">
        <ellipse
           style="fill:#ffffff;fill-opacity:0.997068;stroke:#000000;stroke-width:1.32292;stroke-linecap:round;stroke-dasharray:none;stroke-opacity:1"
           id="ellipse10257"
           cx="281.11047"
           cy="143.06802"
           rx="8.4483833"
           ry="13.669771" />
        <circle
           style="fill:#000000;fill-opacity:0.997068;stroke:none;stroke-width:1.9902;stroke-linecap:round;stroke-dasharray:none;stroke-opacity:1"
           id="circle10259"
           cx="281.2341"
           cy="146.37953"
           r="5.8570695" />
        <circle
           style="fill:#ffffff;fill-opacity:0.997068;stroke:none;stroke-width:1.50451;stroke-linecap:round;stroke-dasharray:none;stroke-opacity:1"
           id="circle10263"
           cx="278.84683"
           cy="144.18706"
           r="1.1898601" />
      </g>
      <rect
         style="fill:#ad1457;fill-opacity:0.997068;stroke:none;stroke-width:0.68837;stroke-linecap:round;stroke-dasharray:none;stroke-opacity:1"
         id="rect10500"
         width="21.163918"
         height="13.219863"
         x="242.50064"
         y="198.74045"
         ry="4.5049567" />
      <rect
         style="fill:#f48fb1;fill-opacity:0.997068;stroke:none;stroke-width:1.01459;stroke-linecap:round;stroke-dasharray:none;stroke-opacity:1"
         id="rect10337"
         width="31.193596"
         height="19.484818"
         x="237.48581"
         y="187.68477"
         ry="6.6398764" />
      <circle
         style="fill:#000000;fill-opacity:0.997068;stroke:none;stroke-width:1.1082;stroke-linecap:round;stroke-dasharray:none;stroke-opacity:1"
         id="circle10445"
         cx="260.92764"
         cy="197.42081"
         r="3.2613661" />
      <circle
         style="fill:#000000;fill-opacity:0.997068;stroke:none;stroke-width:1.1082;stroke-linecap:round;stroke-dasharray:none;stroke-opacity:1"
         id="circle10443"
         cx="245.42719"
         cy="197.42081"
         r="3.2613661" />
    </g>
  </g>
</svg>
